<svg width="52" height="46" viewBox="0 0 52 46" fill="none" xmlns="http://www.w3.org/2000/svg">
<g id="Group">
<path id="Vector" d="M2.01721 43.9549H49.7892" stroke="#323232" stroke-width="3.53226" stroke-miterlimit="10" stroke-linecap="round" stroke-linejoin="round"/>
<path id="Vector_2" d="M42.7972 43.9769V34.292" stroke="#323232" stroke-width="3.53226" stroke-miterlimit="10" stroke-linecap="round" stroke-linejoin="round"/>
<path id="Vector_3" d="M42.8408 19.8303C40.1916 19.8303 38.0636 21.9583 38.0636 24.6075V29.5367C38.0636 32.1858 40.1916 34.3139 42.8408 34.3139C45.49 34.3139 47.618 32.1858 47.618 29.5367V24.6075C47.618 21.9583 45.49 19.8303 42.8408 19.8303Z" stroke="#323232" stroke-width="3.53226" stroke-miterlimit="10" stroke-linecap="round" stroke-linejoin="round"/>
<path id="Vector_4" d="M4.40601 43.9549V9.27677C4.40601 4.91215 6.57757 2.71893 10.8988 2.71893H24.4268C28.748 2.71893 30.8978 4.91215 30.8978 9.27677V43.9549" stroke="#323232" stroke-width="3.53226" stroke-miterlimit="10" stroke-linecap="round" stroke-linejoin="round"/>
<path id="Vector_5" d="M12.4403 14.0974H23.1891" stroke="#323232" stroke-width="3.53226" stroke-miterlimit="10" stroke-linecap="round" stroke-linejoin="round"/>
<path id="Vector_6" d="M12.4403 22.2403H23.1891" stroke="#323232" stroke-width="3.53226" stroke-miterlimit="10" stroke-linecap="round" stroke-linejoin="round"/>
<path id="Vector_7" d="M17.7603 43.9549V35.8119" stroke="#323232" stroke-width="3.53226" stroke-miterlimit="10" stroke-linecap="round" stroke-linejoin="round"/>
</g>
</svg>
