<svg width="46" height="45" viewBox="0 0 46 45" fill="none" xmlns="http://www.w3.org/2000/svg">
<g id="Group">
<path id="Vector" d="M23.9945 42.9766H6.65255C4.26339 42.9766 2.30676 41.0611 2.30676 38.7132V8.14851C2.30676 2.75231 6.32301 0.301362 11.2455 2.71112L20.3901 7.20109C22.3674 8.16911 23.9945 10.7436 23.9945 12.9268V42.9766Z" stroke="#323232" stroke-width="3.36044" stroke-linecap="round" stroke-linejoin="round"/>
<path id="Vector_2" d="M43.4997 28.683V36.4684C43.4997 40.9172 41.4401 42.9768 36.9913 42.9768H23.9951V19.1264L24.9631 19.3324L34.2314 21.4126L38.4124 22.3394C41.1311 22.9367 43.3555 24.3372 43.4791 28.2917C43.4997 28.4153 43.4997 28.5389 43.4997 28.683Z" stroke="#323232" stroke-width="3.36044" stroke-linecap="round" stroke-linejoin="round"/>
<path id="Vector_3" opacity="0.4" d="M9.57777 16.202H16.7247" stroke="black" stroke-width="3.36044" stroke-linecap="round" stroke-linejoin="round"/>
<path id="Vector_4" opacity="0.4" d="M9.57777 24.4404H16.7247" stroke="black" stroke-width="3.36044" stroke-linecap="round" stroke-linejoin="round"/>
<path id="Vector_5" d="M34.2309 21.4128V28.0448C34.2309 30.5987 32.1506 32.6789 29.5967 32.6789C27.0428 32.6789 24.9626 30.5987 24.9626 28.0448V19.3326L34.2309 21.4128Z" stroke="#323232" stroke-width="3.36044" stroke-linecap="round" stroke-linejoin="round"/>
<path id="Vector_6" d="M43.4785 28.2915C43.355 30.7218 41.3365 32.6785 38.865 32.6785C36.3111 32.6785 34.2309 30.5983 34.2309 28.0443V21.4124L38.4119 22.3392C41.1306 22.9365 43.355 24.337 43.4785 28.2915Z" stroke="#323232" stroke-width="3.36044" stroke-linecap="round" stroke-linejoin="round"/>
</g>
</svg>
