<svg width="46" height="46" viewBox="0 0 46 46" fill="none" xmlns="http://www.w3.org/2000/svg">
<g id="Group 3">
<path id="Vector" d="M44.0906 45.5301H1.59363C0.722448 45.5301 0 44.8077 0 43.9365C0 43.0653 0.722448 42.3428 1.59363 42.3428H44.0906C44.9618 42.3428 45.6842 43.0653 45.6842 43.9365C45.6842 44.8077 44.9618 45.5301 44.0906 45.5301Z" fill="#323232"/>
<path id="Vector_2" d="M5.20625 43.9358H2.01898L2.1252 18.3739C2.1252 16.5678 2.95391 14.8893 4.37756 13.7843L19.2515 2.20391C21.3551 0.567774 24.3086 0.567774 26.4335 2.20391L41.3074 13.7631C42.7098 14.868 43.5597 16.5891 43.5597 18.3739V43.9358H40.3725V18.3952C40.3725 17.5878 39.99 16.8016 39.3525 16.2916L24.4786 4.73247C23.5224 3.98878 22.1838 3.98878 21.2063 4.73247L6.3324 16.3129C5.69494 16.8016 5.31247 17.5878 5.31247 18.3952L5.20625 43.9358Z" fill="#323232"/>
<path id="Vector_3" d="M28.1542 45.5301H17.53C16.6588 45.5301 15.9363 44.8077 15.9363 43.9365V36.4995C15.9363 33.8647 18.0824 31.7186 20.7172 31.7186H24.9669C27.6018 31.7186 29.7478 33.8647 29.7478 36.4995V43.9365C29.7478 44.8077 29.0254 45.5301 28.1542 45.5301ZM19.1236 42.3429H26.5606V36.4995C26.5606 35.6283 25.8381 34.9059 24.9669 34.9059H20.7172C19.8461 34.9059 19.1236 35.6283 19.1236 36.4995V42.3429Z" fill="#323232"/>
<path id="Vector_4" d="M17.53 28.0001H13.2803C11.2405 28.0001 9.56183 26.3215 9.56183 24.2816V21.0943C9.56183 19.0545 11.2405 17.3759 13.2803 17.3759H17.53C19.5699 17.3759 21.2485 19.0545 21.2485 21.0943V24.2816C21.2485 26.3215 19.5699 28.0001 17.53 28.0001ZM13.2803 20.5631C12.9828 20.5631 12.7491 20.7969 12.7491 21.0943V24.2816C12.7491 24.5791 12.9828 24.8128 13.2803 24.8128H17.53C17.8275 24.8128 18.0612 24.5791 18.0612 24.2816V21.0943C18.0612 20.7969 17.8275 20.5631 17.53 20.5631H13.2803Z" fill="#323232"/>
<path id="Vector_5" d="M32.4039 28.0001H28.1542C26.1144 28.0001 24.4357 26.3215 24.4357 24.2816V21.0943C24.4357 19.0545 26.1144 17.3759 28.1542 17.3759H32.4039C34.4438 17.3759 36.1224 19.0545 36.1224 21.0943V24.2816C36.1224 26.3215 34.4438 28.0001 32.4039 28.0001ZM28.1542 20.5631C27.8567 20.5631 27.623 20.7969 27.623 21.0943V24.2816C27.623 24.5791 27.8567 24.8128 28.1542 24.8128H32.4039C32.7014 24.8128 32.9351 24.5791 32.9351 24.2816V21.0943C32.9351 20.7969 32.7014 20.5631 32.4039 20.5631H28.1542Z" fill="#323232"/>
<path id="Vector_6" d="M37.7162 13.6574C36.845 13.6574 36.1225 12.9562 36.1225 12.085L36.08 7.28285H28.3243C27.4532 7.28285 26.7307 6.5604 26.7307 5.68922C26.7307 4.81803 27.4532 4.09558 28.3243 4.09558H37.6737C38.5449 4.09558 39.2673 4.79676 39.2673 5.66795L39.3311 12.0425C39.3098 12.9349 38.6086 13.6574 37.7162 13.6574Z" fill="#323232"/>
</g>
</svg>
