<svg width="46" height="47" viewBox="0 0 46 47" fill="none" xmlns="http://www.w3.org/2000/svg">
<g id="Group">
<path id="Vector" d="M24.795 46.3463H7.91329C2.80658 46.3463 0 43.5398 0 38.433V21.5514C0 16.4446 2.80658 13.6381 7.91329 13.6381H18.4643C19.3295 13.6381 20.047 14.3555 20.047 15.2207V38.433C20.047 41.7672 21.4608 43.181 24.795 43.181C25.6602 43.181 26.3776 43.8985 26.3776 44.7637C26.3776 45.6289 25.6602 46.3463 24.795 46.3463ZM7.91329 16.8034C4.57916 16.8034 3.16532 18.2172 3.16532 21.5514V38.433C3.16532 41.7672 4.57916 43.181 7.91329 43.181H18.0423C17.2826 41.936 16.8817 40.3533 16.8817 38.433V16.8034H7.91329Z" fill="#323232"/>
<path id="Vector_2" d="M18.4643 16.8034H7.91329C7.0481 16.8034 6.33063 16.0859 6.33063 15.2207V11.0003C6.33063 7.79276 8.92619 5.1972 12.1337 5.1972H18.6965C19.1818 5.1972 19.6461 5.42929 19.9415 5.80912C20.2369 6.21006 20.3424 6.71656 20.2158 7.1808C20.0892 7.64505 20.047 8.1726 20.047 8.89007V15.2207C20.047 16.0859 19.3295 16.8034 18.4643 16.8034ZM9.49594 13.638H16.8817V8.89007C16.8817 8.70016 16.8817 8.53134 16.8817 8.36252H12.1337C10.6777 8.36252 9.49594 9.54424 9.49594 11.0003V13.638Z" fill="#323232"/>
<path id="Vector_3" d="M26.9052 27.3544C26.04 27.3544 25.3225 26.637 25.3225 25.7718V15.2207C25.3225 14.3555 26.04 13.6381 26.9052 13.6381C27.7704 13.6381 28.4879 14.3555 28.4879 15.2207V25.7718C28.4879 26.637 27.7704 27.3544 26.9052 27.3544Z" fill="#323232"/>
<path id="Vector_4" d="M35.346 27.3544C34.4808 27.3544 33.7634 26.637 33.7634 25.7718V15.2207C33.7634 14.3555 34.4808 13.6381 35.346 13.6381C36.2112 13.6381 36.9287 14.3555 36.9287 15.2207V25.7718C36.9287 26.637 36.2112 27.3544 35.346 27.3544Z" fill="#323232"/>
<path id="Vector_5" d="M35.346 46.3463H26.9052C26.04 46.3463 25.3225 45.6288 25.3225 44.7637V36.3228C25.3225 34.297 26.9896 32.6299 29.0154 32.6299H33.2358C35.2616 32.6299 36.9287 34.297 36.9287 36.3228V44.7637C36.9287 45.6288 36.2112 46.3463 35.346 46.3463ZM28.4879 43.181H33.7634V36.3228C33.7634 36.0274 33.5313 35.7953 33.2358 35.7953H29.0154C28.72 35.7953 28.4879 36.0274 28.4879 36.3228V43.181Z" fill="#323232"/>
<path id="Vector_6" d="M10.0235 35.7953C9.15831 35.7953 8.44084 35.0778 8.44084 34.2127V25.7718C8.44084 24.9066 9.15831 24.1891 10.0235 24.1891C10.8887 24.1891 11.6062 24.9066 11.6062 25.7718V34.2127C11.6062 35.0778 10.8887 35.7953 10.0235 35.7953Z" fill="#323232"/>
<path id="Vector_7" d="M37.4562 46.3463H24.795C19.6883 46.3463 16.8817 43.5398 16.8817 38.4331V8.8901C16.8817 3.78339 19.6883 0.976807 24.795 0.976807H37.4562C42.563 0.976807 45.3695 3.78339 45.3695 8.8901V38.4331C45.3695 43.5398 42.563 46.3463 37.4562 46.3463ZM24.795 4.14212C21.4608 4.14212 20.047 5.55596 20.047 8.8901V38.4331C20.047 41.7672 21.4608 43.181 24.795 43.181H37.4562C40.7904 43.181 42.2042 41.7672 42.2042 38.4331V8.8901C42.2042 5.55596 40.7904 4.14212 37.4562 4.14212H24.795Z" fill="#323232"/>
</g>
</svg>
